HIERARCHY
ROOT Pelvis
{
	OFFSET 0.000000 0.000000 0.000000
	CHANNELS 6 Xposition Yposition Zposition Xrotation Yrotation Zrotation
	JOINT LeftUpLeg_virtual
	{
		OFFSET 0.000000 0.000000 0.000000
		CHANNELS 3 Xrotation Yrotation Zrotation
		JOINT LeftUpLeg
		{
			OFFSET 18.735201 -5.666702 -4.541200
			CHANNELS 3 Xrotation Yrotation Zrotation
			JOINT LeftLeg
			{
				OFFSET -0.021200 -31.938179 0.493100
				CHANNELS 3 Xrotation Yrotation Zrotation
				JOINT LeftFoot
				{
					OFFSET 0.021200 -31.938179 -4.336299
					CHANNELS 3 Xrotation Yrotation Zrotation
					JOINT LeftToeBase
					{
						OFFSET 0.943001 -26.722000 15.023500
						CHANNELS 3 Xrotation Yrotation Zrotation
						End Site
						{
							OFFSET 0 0 0
						}
					}
				}
			}
		}
	}
	JOINT RightUpLeg_virtual
	{
		OFFSET 0.000000 0.000000 0.000000
		CHANNELS 3 Xrotation Yrotation Zrotation
		JOINT RightUpLeg
		{
			OFFSET -18.735201 -5.666702 -4.541200
			CHANNELS 3 Xrotation Yrotation Zrotation
			JOINT RightLeg
			{
				OFFSET 0.018946 -31.938133 0.493100
				CHANNELS 3 Xrotation Yrotation Zrotation
				JOINT RightFoot
				{
					OFFSET -0.018946 -31.938126 -4.336299
					CHANNELS 3 Xrotation Yrotation Zrotation
					JOINT RightToeBase
					{
						OFFSET -0.943001 -26.722004 15.023500
						CHANNELS 3 Xrotation Yrotation Zrotation
						End Site
						{
							OFFSET 0 0 0
						}
					}
				}
			}
		}
	}
	JOINT Hips_virtual
	{
		OFFSET 0.000000 0.000000 0.000000
		CHANNELS 3 Xrotation Yrotation Zrotation
		JOINT Hips
		{
			OFFSET -0.000000 -0.000000 -0.000000
			CHANNELS 3 Xrotation Yrotation Zrotation
			JOINT Spine
			{
				OFFSET 0.000000 10.199997 -0.299500
				CHANNELS 3 Xrotation Yrotation Zrotation
				JOINT Spine1
				{
					OFFSET 0.000000 11.900002 -1.516600
					CHANNELS 3 Xrotation Yrotation Zrotation
					JOINT Spine2
					{
						OFFSET 0.000000 13.600006 -2.842500
						CHANNELS 3 Xrotation Yrotation Zrotation
						JOINT Neck_virtual
						{
							OFFSET 0.000000 0.000000 0.000000
							CHANNELS 3 Xrotation Yrotation Zrotation
							JOINT Neck
							{
								OFFSET 0.000000 9.624100 -2.890100
								CHANNELS 3 Xrotation Yrotation Zrotation
								JOINT Head
								{
									OFFSET 0.000000 14.068802 -1.351900
									CHANNELS 3 Xrotation Yrotation Zrotation
									End Site
									{
										OFFSET 0 0 0
									}
								}
							}
						}
						JOINT LeftShoulder_virtual
						{
							OFFSET 0.000000 0.000000 0.000000
							CHANNELS 3 Xrotation Yrotation Zrotation
							JOINT LeftShoulder
							{
								OFFSET 15.263000 10.923401 -0.547700
								CHANNELS 3 Xrotation Yrotation Zrotation
								JOINT LeftArm
								{
									OFFSET 25.438599 -2.830597 -13.032500
									CHANNELS 3 Xrotation Yrotation Zrotation
									JOINT LeftForeArm
									{
										OFFSET 29.960503 0.000000 0.000000
										CHANNELS 3 Xrotation Yrotation Zrotation
										JOINT LeftHand
										{
											OFFSET 27.849251 0.000000 0.000000
											CHANNELS 3 Xrotation Yrotation Zrotation
											End Site
											{
												OFFSET 0 0 0
											}
										}
									}
								}
							}
						}
						JOINT RightShoulder_virtual
						{
							OFFSET 0.000000 0.000000 0.000000
							CHANNELS 3 Xrotation Yrotation Zrotation
							JOINT RightShoulder
							{
								OFFSET -15.263000 10.923401 -0.547700
								CHANNELS 3 Xrotation Yrotation Zrotation
								JOINT RightArm
								{
									OFFSET -25.438599 -2.830597 -13.032500
									CHANNELS 3 Xrotation Yrotation Zrotation
									JOINT RightForeArm
									{
										OFFSET -29.960503 0.000000 0.000000
										CHANNELS 3 Xrotation Yrotation Zrotation
										JOINT RightHand
										{
											OFFSET -27.849251 0.000000 0.000000
											CHANNELS 3 Xrotation Yrotation Zrotation
											End Site
											{
												OFFSET 0 0 0
											}
										}
									}
								}
							}
						}
					}
				}
			}
		}
	}
}
MOTION
Frames: 4
Frame Time: 0.03333333
20.699635 86.983818 6.928847 0.000000 0.000000 0.000000 6.356366 -57.415875 5.463551 -54.837581 -1.788690 22.560238 43.278080 -4.669721 -2.923028 -6.758551 -3.096056 -14.753077 0.000000 0.000000 0.000000 128.602435 -79.682387 122.243393 -28.451428 -35.587581 -26.714499 42.309388 -2.342077 2.416665 -8.868424 -6.750721 13.133688 0.000000 0.000000 0.000000 -8.543355 -62.683501 0.392669 10.903580 -40.841140 8.837567 10.689127 -3.195104 -1.732313 5.525699 -1.908653 -1.419821 0.000000 0.000000 0.000000 0.450786 -1.834153 -1.394290 -0.419618 1.229123 -0.897017 0.000000 0.000000 0.000000 -2.341037 -4.383011 -2.553240 -2.801472 -15.513139 -8.380225 -30.567491 4.323092 -53.990135 -7.277269 -30.022752 -14.796710 0.000000 0.000000 0.000000 -4.598667 -0.766938 -0.642437 -0.756174 6.693159 -2.110098 -0.335405 -8.794937 47.016618 -7.100677 55.479861 13.352662 0.000000 0.000000 0.000000 
20.783394 86.901001 6.185538 0.000000 0.000000 0.000000 6.888002 -59.911885 5.969260 -55.324986 -2.210946 22.585381 44.240921 -5.446645 -2.374167 -6.111453 -4.220802 -14.485358 0.000000 0.000000 0.000000 130.653842 -78.972949 124.666361 -28.737833 -35.949751 -26.347347 42.236370 -2.071366 2.190221 -8.974150 -6.376364 12.965043 0.000000 0.000000 0.000000 -8.569354 -63.426933 0.343874 11.775731 -41.265155 9.179142 10.616262 -3.004320 -1.817925 5.342998 -1.760114 -1.440233 0.000000 0.000000 0.000000 0.085947 -1.458658 -1.480932 -0.568947 1.442047 -0.993835 0.000000 0.000000 0.000000 -2.798851 -4.060433 -2.618192 -2.933070 -14.908648 -8.388638 -31.203767 4.071498 -53.543397 -7.385134 -30.300218 -14.774375 0.000000 0.000000 0.000000 -4.980130 -0.497486 -0.714213 -0.830913 7.286589 -2.165880 0.878570 -8.563542 46.544956 -5.883189 54.987398 12.195031 0.000000 0.000000 0.000000 
20.810484 86.823555 5.458905 0.000000 0.000000 0.000000 7.497756 -62.402357 6.514833 -55.779163 -2.618129 22.567742 45.169800 -6.125742 -1.820811 -5.488404 -5.247962 -14.144780 0.000000 0.000000 0.000000 132.358425 -78.253334 126.738176 -29.008800 -36.311113 -25.962626 42.159578 -1.829179 1.961022 -9.087492 -6.028922 12.770464 0.000000 0.000000 0.000000 -8.554584 -64.111639 0.319590 12.737739 -41.625253 9.603646 10.561033 -2.825210 -1.911616 5.177946 -1.615407 -1.468014 0.000000 0.000000 0.000000 -0.253400 -1.093435 -1.576283 -0.711289 1.646187 -1.090947 0.000000 0.000000 0.000000 -3.232239 -3.739008 -2.681849 -3.066472 -14.319341 -8.389072 -31.864349 3.897020 -53.089063 -7.522314 -30.514710 -14.753207 0.000000 0.000000 0.000000 -5.337230 -0.224999 -0.788204 -0.910601 7.875267 -2.243997 2.068742 -8.413986 46.079970 -4.739305 54.405602 11.119112 0.000000 0.000000 0.000000 
20.779554 86.752556 4.740541 0.000000 0.000000 0.000000 8.203676 -64.863028 7.127274 -56.187370 -3.013909 22.510181 46.023447 -6.701574 -1.283915 -4.915641 -6.158408 -13.755890 0.000000 0.000000 0.000000 133.800974 -77.530823 128.540745 -29.271920 -36.668110 -25.573178 42.081400 -1.610321 1.735703 -9.207312 -5.706793 12.564794 0.000000 0.000000 0.000000 -8.490484 -64.744647 0.329062 13.797443 -41.949755 10.131015 10.523554 -2.657583 -2.011280 5.030670 -1.474403 -1.502043 0.000000 0.000000 0.000000 -0.568300 -0.737936 -1.681534 -0.847619 1.841445 -1.188536 0.000000 0.000000 0.000000 -3.638701 -3.419123 -2.744796 -3.200171 -13.748682 -8.382742 -32.527126 3.790773 -52.633789 -7.679175 -30.665534 -14.731028 0.000000 0.000000 0.000000 -5.666345 0.049943 -0.863909 -0.992524 8.458855 -2.341450 3.224365 -8.341952 45.624851 -3.677630 53.740769 10.133070 0.000000 0.000000 0.000000 
